<?xml version="1.0" encoding="utf-8"?>
<!-- Generator: Adobe Illustrator 24.1.0, SVG Export Plug-In . SVG Version: 6.00 Build 0)  -->
<svg version="1.1" id="Layer_1" xmlns="http://www.w3.org/2000/svg" xmlns:xlink="http://www.w3.org/1999/xlink" x="0px" y="0px"
	 viewBox="0 0 140.9 121" style="enable-background:new 0 0 140.9 121;" xml:space="preserve">
<style type="text/css">
	.st0{fill:#33475D;}
	.st1{fill-rule:evenodd;clip-rule:evenodd;fill:#33475D;}
	.st2{clip-path:url(#SVGID_2_);}
	.st3{clip-path:url(#SVGID_4_);}
	.st4{clip-path:url(#SVGID_6_);}
	.st5{clip-path:url(#SVGID_8_);}
</style>
<path class="st0" d="M105.4,31.4H82.7V10.7C78,7.9,74,4.8,72.6,0.1c-1.3,4.7-5.2,7.7-9.9,10.5v20.7H40.2c-1.9,4.9-2.9,10.1-2.9,15.3
	c0,1.6,0.1,3.1,0.3,4.7h3.3l0.2-0.2c6.8-6.1,17-6.1,23.8,0c0.3,0.3,0.6,0.6,0.9,0.9v-1.2c-0.7-0.1-1.1-0.7-1-1.4c0.1-0.5,0.5-1,1-1
	v-0.3h-1.2V35.3h1.2v-5.1h0.7l1.7-5.1l0.1,0.4H69v-3.9h0.4V20h0.7l2.4-8.6h0.8l2.4,8.6H76v1.6h0.4v3.9h0.7l1.7,4.7h0.3v5.1h1.2v12.9
	h-0.8v34.1c1.1-0.2,2.1-0.5,3.1-0.8V51.3h25.1c0.2-1.6,0.3-3.1,0.3-4.7C108.3,41.4,107.4,36.2,105.4,31.4L105.4,31.4z M95,18.4
	l-8.8,5.4v4h17.5C101.4,24.2,98.5,21,95,18.4L95,18.4z M86.2,59.3l14.8,9.1c2.9-3.9,5-8.4,6.2-13.1h-21L86.2,59.3L86.2,59.3z
	 M59.2,23.9l-8.9-5.5c-3.4,2.6-6.3,5.8-8.5,9.5h17.4V23.9z M40.5,51.8L40.5,51.8L40.5,51.8L40.5,51.8z"/>
<path class="st1" d="M86.6,63.5l12.1,7.7c-3.5,3.8-7.8,6.9-12.5,9.1L86.6,63.5z M86.2,19.6l5.6-3.4c-1.7-1.1-3.6-2.3-5.6-3.4V19.6z
	 M59.2,19.6l-5.6-3.4c1.7-1.1,3.6-2.3,5.6-3.5V19.6z"/>
<path class="st1" d="M39.5,48.4c0.7,0,1.3,0.6,1.3,1.3s-0.6,1.3-1.3,1.3c-0.7,0-1.3-0.6-1.3-1.3C38.1,49,38.7,48.4,39.5,48.4z"/>
<path id="SVGID-5" class="st1" d="M39.5,48.4c0.7,0,1.3,0.6,1.3,1.3s-0.6,1.3-1.3,1.3c-0.7,0-1.3-0.6-1.3-1.3
	C38.1,49,38.7,48.4,39.5,48.4z"/>
<g>
	<defs>
		<path id="SVGID_1_" d="M39.5,48.4c0.7,0,1.3,0.6,1.3,1.3s-0.6,1.3-1.3,1.3c-0.7,0-1.3-0.6-1.3-1.3C38.1,49,38.7,48.4,39.5,48.4z"
			/>
	</defs>
	<use xlink:href="#SVGID_1_"  style="overflow:visible;fill:#33475D;"/>
	<clipPath id="SVGID_2_">
		<use xlink:href="#SVGID_1_"  style="overflow:visible;"/>
	</clipPath>
	<g class="st2">
		<polygon class="st0" points="72.7,28 27,0 8.6,0 8.6,15.7 50.7,41.5 8.6,67.4 8.6,83.1 27,83.1 72.7,55 118.4,83.1 136.8,83.1 
			136.8,67.4 94.7,41.5 136.8,15.7 136.8,0 118.4,0 72.7,28 		"/>
		<polygon class="st0" points="136.8,0 125.2,0 72.7,32.2 20.1,0 8.6,0 8.6,11.5 57.5,41.5 8.6,71.5 8.6,83.1 20.1,83.1 72.7,50.8 
			125.2,83.1 136.8,83.1 136.8,71.5 87.9,41.5 136.8,11.5 136.8,0 		"/>
		<polygon class="st0" points="136.8,27.8 86.2,27.8 86.2,0 58.8,0 58.8,27.8 8.6,27.8 8.6,55.3 58.8,55.3 58.8,83.1 86.2,83.1 
			86.2,55.3 136.8,55.3 136.8,27.8 		"/>
		<polygon class="st0" points="136.8,31.4 82.7,31.4 82.7,0 62.7,0 62.7,31.4 8.6,31.4 8.6,51.3 62.7,51.3 62.7,83.1 82.7,83.1 
			82.7,51.3 136.8,51.3 136.8,31.4 		"/>
	</g>
</g>
<path class="st1" d="M45.3,44.4c0.7,0,1.3,0.6,1.3,1.3s-0.6,1.3-1.3,1.3c-0.7,0-1.3-0.6-1.3-1.3C44,45,44.6,44.4,45.3,44.4z"/>
<path id="SVGID-6" class="st1" d="M45.3,44.4c0.7,0,1.3,0.6,1.3,1.3s-0.6,1.3-1.3,1.3c-0.7,0-1.3-0.6-1.3-1.3
	C44,45,44.6,44.4,45.3,44.4z"/>
<g>
	<defs>
		<path id="SVGID_3_" d="M45.3,44.4c0.7,0,1.3,0.6,1.3,1.3s-0.6,1.3-1.3,1.3c-0.7,0-1.3-0.6-1.3-1.3C44,45,44.6,44.4,45.3,44.4z"/>
	</defs>
	<use xlink:href="#SVGID_3_"  style="overflow:visible;fill:#33475D;"/>
	<clipPath id="SVGID_4_">
		<use xlink:href="#SVGID_3_"  style="overflow:visible;"/>
	</clipPath>
	<g class="st3">
		<polygon class="st0" points="72.7,28 27,0 8.6,0 8.6,15.7 50.7,41.5 8.6,67.4 8.6,83.1 27,83.1 72.7,55 118.4,83.1 136.8,83.1 
			136.8,67.4 94.7,41.5 136.8,15.7 136.8,0 118.4,0 72.7,28 		"/>
		<polygon class="st0" points="136.8,0 125.2,0 72.7,32.2 20.1,0 8.6,0 8.6,11.5 57.5,41.5 8.6,71.5 8.6,83.1 20.1,83.1 72.7,50.8 
			125.2,83.1 136.8,83.1 136.8,71.5 87.9,41.5 136.8,11.5 136.8,0 		"/>
		<polygon class="st0" points="136.8,27.8 86.2,27.8 86.2,0 58.8,0 58.8,27.8 8.6,27.8 8.6,55.3 58.8,55.3 58.8,83.1 86.2,83.1 
			86.2,55.3 136.8,55.3 136.8,27.8 		"/>
		<polygon class="st0" points="136.8,31.4 82.7,31.4 82.7,0 62.7,0 62.7,31.4 8.6,31.4 8.6,51.3 62.7,51.3 62.7,83.1 82.7,83.1 
			82.7,51.3 136.8,51.3 136.8,31.4 		"/>
	</g>
</g>
<path class="st1" d="M52.7,42.9c0.7,0,1.3,0.6,1.3,1.3s-0.6,1.3-1.3,1.3c-0.7,0-1.3-0.6-1.3-1.3C51.4,43.5,52,42.9,52.7,42.9z"/>
<path id="SVGID-7" class="st1" d="M52.7,42.9c0.7,0,1.3,0.6,1.3,1.3s-0.6,1.3-1.3,1.3c-0.7,0-1.3-0.6-1.3-1.3
	C51.4,43.5,52,42.9,52.7,42.9z"/>
<g>
	<defs>
		<path id="SVGID_5_" d="M52.7,42.9c0.7,0,1.3,0.6,1.3,1.3s-0.6,1.3-1.3,1.3c-0.7,0-1.3-0.6-1.3-1.3C51.4,43.5,52,42.9,52.7,42.9z"
			/>
	</defs>
	<use xlink:href="#SVGID_5_"  style="overflow:visible;fill:#33475D;"/>
	<clipPath id="SVGID_6_">
		<use xlink:href="#SVGID_5_"  style="overflow:visible;"/>
	</clipPath>
	<g class="st4">
		<polygon class="st0" points="72.7,28 27,0 8.6,0 8.6,15.7 50.7,41.5 8.6,67.4 8.6,83.1 27,83.1 72.7,55 118.4,83.1 136.8,83.1 
			136.8,67.4 94.7,41.5 136.8,15.7 136.8,0 118.4,0 72.7,28 		"/>
		<polygon class="st0" points="136.8,0 125.2,0 72.7,32.2 20.1,0 8.6,0 8.6,11.5 57.5,41.5 8.6,71.5 8.6,83.1 20.1,83.1 72.7,50.8 
			125.2,83.1 136.8,83.1 136.8,71.5 87.9,41.5 136.8,11.5 136.8,0 		"/>
		<polygon class="st0" points="136.8,27.8 86.2,27.8 86.2,0 58.8,0 58.8,27.8 8.6,27.8 8.6,55.3 58.8,55.3 58.8,83.1 86.2,83.1 
			86.2,55.3 136.8,55.3 136.8,27.8 		"/>
		<polygon class="st0" points="136.8,31.4 82.7,31.4 82.7,0 62.7,0 62.7,31.4 8.6,31.4 8.6,51.3 62.7,51.3 62.7,83.1 82.7,83.1 
			82.7,51.3 136.8,51.3 136.8,31.4 		"/>
	</g>
</g>
<path class="st1" d="M59.7,44.3c0.7,0,1.3,0.6,1.3,1.3c0,0.7-0.6,1.3-1.3,1.3s-1.3-0.6-1.3-1.3l0,0C58.4,44.9,58.9,44.3,59.7,44.3z"
	/>
<path id="SVGID-8" class="st1" d="M59.7,44.3c0.7,0,1.3,0.6,1.3,1.3c0,0.7-0.6,1.3-1.3,1.3s-1.3-0.6-1.3-1.3l0,0
	C58.4,44.9,58.9,44.3,59.7,44.3z"/>
<g>
	<defs>
		<path id="SVGID_7_" d="M59.7,44.3c0.7,0,1.3,0.6,1.3,1.3c0,0.7-0.6,1.3-1.3,1.3s-1.3-0.6-1.3-1.3l0,0
			C58.4,44.9,58.9,44.3,59.7,44.3z"/>
	</defs>
	<use xlink:href="#SVGID_7_"  style="overflow:visible;fill:#33475D;"/>
	<clipPath id="SVGID_8_">
		<use xlink:href="#SVGID_7_"  style="overflow:visible;"/>
	</clipPath>
	<g class="st5">
		<polygon class="st0" points="72.7,28 27,0 8.6,0 8.6,15.7 50.7,41.5 8.6,67.4 8.6,83.1 27,83.1 72.7,55 118.4,83.1 136.8,83.1 
			136.8,67.4 94.7,41.5 136.8,15.7 136.8,0 118.4,0 72.7,28 		"/>
		<polygon class="st0" points="136.8,0 125.2,0 72.7,32.2 20.1,0 8.6,0 8.6,11.5 57.5,41.5 8.6,71.5 8.6,83.1 20.1,83.1 72.7,50.8 
			125.2,83.1 136.8,83.1 136.8,71.5 87.9,41.5 136.8,11.5 136.8,0 		"/>
		<polygon class="st0" points="136.8,27.8 86.2,27.8 86.2,0 58.8,0 58.8,27.8 8.6,27.8 8.6,55.3 58.8,55.3 58.8,83.1 86.2,83.1 
			86.2,55.3 136.8,55.3 136.8,27.8 		"/>
		<polygon class="st0" points="136.8,31.4 82.7,31.4 82.7,0 62.7,0 62.7,31.4 8.6,31.4 8.6,51.3 62.7,51.3 62.7,83.1 82.7,83.1 
			82.7,51.3 136.8,51.3 136.8,31.4 		"/>
	</g>
</g>
<path class="st0" d="M53.1,48.5c3.9,0,7.6,1.6,10.4,4.3c0.9,0.9,1.7,2,2.4,3.1v-2.7c-0.4-0.5-0.9-1-1.4-1.5
	c-6.3-6.3-16.5-6.3-22.9,0c-6.3,6.3-6.3,16.5,0,22.7c2.2,2.2,5,3.7,8,4.4l0.3-1.4C42,75.8,37,68,38.7,60.1
	C40.1,53.3,46.1,48.5,53.1,48.5L53.1,48.5z M65.8,57.4c-0.6-1.4-1.5-2.7-2.5-3.8l-9.1,9l0.1,0.1l11.5-4.4V57.4z M65.8,58.7
	l-11.5,4.3l0,0h11.5V58.7z M65.8,63.9H54.2V64l11.4,5.3l0.2-0.1L65.8,63.9L65.8,63.9z M65.8,70.4c-0.7,1.1-1.5,2.2-2.4,3.1
	c-2,2-4.5,3.4-7.3,4l0.3,1.4c3-0.7,5.8-2.2,8-4.4c0.5-0.5,0.9-1,1.4-1.5L65.8,70.4L65.8,70.4z M65.8,74c-0.3,0.3-0.6,0.7-0.9,1
	c-2.3,2.3-5.2,3.9-8.4,4.5l0.5,2.8h8.8v-4.7c-0.7-0.1-1.2-0.8-1.1-1.5c0.1-0.5,0.5-1,1.1-1.1V74L65.8,74z M65.9,83.8H39.6v-1.6H49
	l0.5-2.8c-3.2-0.7-6.1-2.2-8.4-4.5c-6.5-6.5-6.6-17-0.1-23.5c0,0,0.1-0.1,0.1-0.1c6.6-6.5,17.2-6.5,23.8,0c0.3,0.3,0.6,0.6,0.9,1
	v-1.3c-0.7-0.1-1.2-0.8-1.1-1.5c0.1-0.5,0.5-1,1.1-1.1v-0.3h-1.2V35.3h1.2v-5.1h0.7l1.7-5.1l0.1,0.4H69v-3.9h0.4V20h0.7l2.4-8.6h0.8
	l2.4,8.6H76v1.6h0.4v3.9h0.7l1.7,4.7h0.3v5.1h1.2v12.9h-0.8v35.6H65.9z M73.7,31.6c0.3,0,0.6,0.1,0.8,0.3c0.2,0.2,0.4,0.5,0.3,0.8
	v2.5l0,0v-2.5c0-0.3,0.1-0.6,0.3-0.8c0.2-0.2,0.5-0.3,0.8-0.3c0.3,0,0.6,0.1,0.8,0.3c0.2,0.2,0.4,0.5,0.3,0.8v2.5h1.6V31H66.6v4.3
	h1.2v-2.5c0-0.3,0.1-0.6,0.3-0.8c0.5-0.4,1.2-0.4,1.7,0c0.2,0.2,0.3,0.5,0.3,0.8v2.5l0,0v-2.5c0-0.3,0.1-0.6,0.3-0.8
	c0.2-0.2,0.5-0.3,0.8-0.3c0.3,0,0.6,0.1,0.8,0.3c0.2,0.2,0.4,0.5,0.3,0.8v2.5l0,0v-2.5c0-0.3,0.1-0.6,0.3-0.8
	C73.1,31.8,73.4,31.6,73.7,31.6z M73.9,32.7c-0.1-0.1-0.2-0.1-0.3-0.1c-0.1,0-0.2,0.1-0.3,0.1c-0.1,0.1-0.1,0.2-0.1,0.3v2.4h0.8
	v-2.5C74.1,32.7,74,32.6,73.9,32.7L73.9,32.7z M76.3,32.7c-0.1-0.1-0.2-0.1-0.3-0.1c-0.1,0-0.2,0.1-0.3,0.1
	c-0.1,0.1-0.1,0.2-0.1,0.3v2.4h0.8v-2.5C76.4,32.7,76.4,32.6,76.3,32.7L76.3,32.7z M71.6,32.7c-0.1-0.1-0.2-0.1-0.3-0.1
	c-0.1,0-0.2,0-0.3,0.1c-0.1,0-0.1,0.1-0.2,0.2v2.4h0.8v-2.4C71.7,32.7,71.6,32.6,71.6,32.7L71.6,32.7z M76,48.8
	c0.3,0,0.6,0.1,0.8,0.4v0.1c0,0,0.5,0.5,0.4,0.8v31.7h-2.3V50c0-0.3,0.1-0.6,0.3-0.9C75.4,49,75.7,48.9,76,48.8z M76.3,49.8
	c-0.1-0.1-0.2-0.1-0.3-0.1c-0.1,0-0.2,0.1-0.3,0.1c-0.1,0.1-0.1,0.2-0.1,0.3v31.1h0.8V50C76.4,49.9,76.4,49.8,76.3,49.8L76.3,49.8z
	 M72.9,48.8c0.3,0,0.6,0.1,0.8,0.4v0.1c0,0,0.2,0.5,0.4,0.8v31.7h-2.4V50c0-0.3,0.1-0.6,0.3-0.9C72.3,49,72.6,48.8,72.9,48.8z
	 M73.2,49.8c-0.1-0.1-0.2-0.1-0.3-0.1c-0.1,0-0.2,0-0.3,0.1v0.1c0,0-0.3,0.2,0,0.3v31h0.8V50C73.3,49.9,73.3,49.8,73.2,49.8
	L73.2,49.8z M68.9,48.8c0.3,0,0.6,0.1,0.8,0.4v0.1c0,0,0.5,0.5,0.4,0.8v31.7h-2.3V50c0-0.3,0.1-0.6,0.3-0.9
	C68.3,49,68.6,48.9,68.9,48.8z M69.2,49.8c-0.1-0.1-0.2-0.1-0.3-0.1c-0.1,0-0.2,0-0.3,0.1c-0.1,0.1-0.1,0.2-0.1,0.3v31.1h0.8V50
	C69.3,49.9,69.3,49.8,69.2,49.8L69.2,49.8z M78.7,48.2H66.6v34.8h12.2L78.7,48.2L78.7,48.2z M68.2,37.6h9v8.6h-9.4v-8.6H68.2z
	 M76.4,38h-7.8v7.4h7.8C76.4,45.5,76.4,38,76.4,38z M69.2,32.6c-0.1-0.2-0.4-0.2-0.5,0c0,0,0,0,0,0c-0.1,0.1-0.1,0.2-0.1,0.3v2.4
	h0.8v-2.4C69.4,32.7,69.3,32.6,69.2,32.6L69.2,32.6z M79.3,36.1H65.4v11.4h14.1V36.1H79.3z M67.3,30.2h10.7l-1.5-4.3l-3.3,0.4h-4.5
	L67.3,30.2L67.3,30.2z M69.8,25.1h0.4v-1.8c-0.1-0.2,0-0.4,0.1-0.5l0,0c0.1-0.1,0.3-0.2,0.5-0.2c0.2,0,0.4,0.1,0.5,0.2l0,0
	c0.1,0.1,0.2,0.3,0.1,0.5v2.2h0.8v-2.2C72,23.2,72,23,72.1,22.9c0,0,0-0.1,0.1-0.1l0,0c0.2-0.3,0.7-0.3,0.9-0.1c0,0,0,0,0.1,0.1l0,0
	c0.1,0.1,0.2,0.3,0.2,0.5v2.2h0.4v-2.2c0-0.2,0.1-0.3,0.1-0.5l0,0c0.2-0.3,0.7-0.3,0.9-0.1c0,0,0,0,0.1,0.1l0,0
	c0.1,0.1,0.4,0.5,0.4,0.5v2.2h0.4v-3.2h-5.9L69.8,25.1L69.8,25.1z M70.6,25.5h0.3v-2.2c0,0,0-0.1-0.1-0.1l0,0c0,0-0.1,0-0.1,0
	c0,0-0.1,0-0.1,0l0,0c0,0,0,0.1-0.1,0.1L70.6,25.5L70.6,25.5z M72.6,23.2c0,0-0.1,0-0.1,0l0,0c0,0,0,0.1,0,0.1v2.2h0.4v-2.1
	c-0.2,0-0.2-0.1-0.2-0.1l0,0C72.7,23.2,72.6,23.2,72.6,23.2L72.6,23.2z M74.3,23.2C74.3,23.2,74.3,23.2,74.3,23.2L74.3,23.2
	c-0.2,0.1-0.2,0.1-0.3,0.1v2.2h0.4v-2.1c0,0,0-0.1,0-0.1C74.5,23.2,74.4,23.2,74.3,23.2L74.3,23.2C74.4,23.2,74.4,23.2,74.3,23.2
	L74.3,23.2z M69.7,21.6h5.5v-0.8h-5.5L69.7,21.6L69.7,21.6z M73.4,15.8l-0.8-3l-1.9,6.8h3.8L73.4,15.8L73.4,15.8z M47.2,75.9l5-11.4
	v-0.1l-8.9,8.8C44.5,74.4,45.8,75.3,47.2,75.9L47.2,75.9z M53.5,61.9l5.1-11.6c-1.7-0.7-3.5-1.1-5.3-1.1v12.6L53.5,61.9L53.5,61.9z
	 M58.9,50.5l-5.1,11.6l0.1,0.1l9-8.9l0,0C61.7,52.2,60.4,51.2,58.9,50.5L58.9,50.5z M51.9,66.5l-4.2,9.6c0.7,0.3,1.5,0.5,2.2,0.7
	L51.9,66.5L51.9,66.5z M43,73l9-9l0,0l-12,4.6C40.7,70.3,41.7,71.8,43,73L43,73z M39.9,68.4l11.8-4.5H38.9
	C39,65.4,39.3,66.9,39.9,68.4z M40.2,57.4l11.5,5.3c0,0,0-0.1,0-0.1l-9-9C41.7,54.7,40.8,56,40.2,57.4L40.2,57.4z M65.4,69.5
	L54,64.2l8.9,8.9l0,0C63.8,72.1,64.7,70.9,65.4,69.5L65.4,69.5z M51.3,62.9l-11.4-5.4c-0.7,1.7-1.1,3.6-1.1,5.4v0.1h12.5V62.9z
	 M43,53.2l9,9l0.2-0.1l-4.6-11.9C45.9,50.9,44.4,51.9,43,53.2L43,53.2z M62.5,73.4l-8.8-8.9l0.1,0.4L58,76.2
	C59.7,75.6,61.2,74.6,62.5,73.4z M48.2,50.1l4.5,11.8h0.2V49.2C51.3,49.2,49.7,49.5,48.2,50.1z M57.6,76.3l-3.4-9l1.7,9.5
	C56.5,76.7,57,76.6,57.6,76.3L57.6,76.3z M53.3,66.8v10.4c0.6,0,1.3-0.1,1.9-0.2l-0.7-3.8L53.3,66.8z M53.3,77.8v0.2h-0.4v-0.1
	c-0.7,0-1.5-0.1-2.2-0.2l-0.3,1.4c1.7,0.3,3.4,0.3,5,0l-0.3-1.4c-0.7,0.1-1.3,0.2-2,0.2L53.3,77.8z M52.9,77.1V66.8L51,77
	C51.6,77.1,52.3,77.1,52.9,77.1L52.9,77.1z M50.3,79.7l-0.5,2.6h1.7c-0.1-0.2-0.1-0.5-0.1-0.8c0.2-0.7,0.9-1.1,1.6-0.9
	c0.7,0.2,1.1,0.9,0.9,1.6c0,0,0,0.1,0,0.1h2.1l-0.5-2.6C53.8,79.9,52,79.9,50.3,79.7z M59.7,44.2c0.7,0,1.3,0.6,1.3,1.3
	c0,0.7-0.6,1.3-1.3,1.3s-1.3-0.6-1.3-1.3l0,0C58.4,44.8,58.9,44.2,59.7,44.2z M52.7,42.9c0.7,0,1.3,0.6,1.3,1.3s-0.6,1.3-1.3,1.3
	c-0.7,0-1.3-0.6-1.3-1.3C51.4,43.5,52,42.9,52.7,42.9z M45.3,44.4c0.7,0,1.3,0.6,1.3,1.3s-0.6,1.3-1.3,1.3c-0.7,0-1.3-0.6-1.3-1.3
	C44,45,44.6,44.4,45.3,44.4z M39.5,48.4c0.7,0,1.3,0.6,1.3,1.3s-0.6,1.3-1.3,1.3c-0.7,0-1.3-0.6-1.3-1.3
	C38.1,49,38.7,48.4,39.5,48.4z M35.3,54.7c0.7,0,1.3,0.6,1.3,1.3s-0.6,1.3-1.3,1.3c-0.7,0-1.3-0.6-1.3-1.3
	C34,55.3,34.6,54.7,35.3,54.7C35.3,54.7,35.3,54.7,35.3,54.7z M34,61.7c0.7,0,1.3,0.6,1.3,1.3s-0.6,1.3-1.3,1.3
	c-0.7,0-1.3-0.6-1.3-1.3C32.6,62.3,33.2,61.7,34,61.7z M35.5,69.1c0.7,0,1.3,0.6,1.3,1.3s-0.6,1.3-1.3,1.3c-0.7,0-1.3-0.6-1.3-1.3
	C34.1,69.7,34.7,69.1,35.5,69.1z M39.5,75c0.7,0,1.3,0.6,1.3,1.3s-0.6,1.3-1.3,1.3c-0.7,0-1.3-0.6-1.3-1.3
	C38.1,75.6,38.7,75,39.5,75z M45.7,79.2c0.7,0,1.3,0.6,1.3,1.3c0,0.7-0.6,1.3-1.3,1.3c0,0,0,0,0,0c-0.7,0-1.3-0.6-1.3-1.3
	C44.4,79.8,45,79.2,45.7,79.2z M60.1,79c0.7,0,1.3,0.6,1.3,1.3s-0.6,1.3-1.3,1.3s-1.3-0.6-1.3-1.3l0,0C58.8,79.6,59.4,79,60.1,79z"
	/>
<path class="st0" d="M75.6,42.3c0,0.8-0.3,1.5-0.9,2.1c-0.5,0.5-1.2,0.9-2,0.9l0,0c-0.8,0-1.5-0.4-2-1c-0.5-0.5-0.8-1.2-0.8-1.9l0,0
	c0-1.2,0.7-2.3,1.8-2.8c0.4-0.2,0.8-0.4,0.8-0.8h0.4c0.1,0.3,0.5,0.6,0.9,0.8C74.9,40,75.6,41.1,75.6,42.3L75.6,42.3z M74.2,44
	c0.4-0.5,0.7-1.1,0.7-1.7c0-1-0.6-1.9-1.5-2.3c-0.3-0.2-0.6-0.4-0.9-0.6c-0.2,0.3-0.5,0.5-0.8,0.6c-0.9,0.4-1.5,1.3-1.5,2.3l0,0
	c0,0.6,0.3,1.1,0.7,1.6c0.4,0.5,1,0.8,1.6,0.8l0,0C73.1,44.6,73.7,44.4,74.2,44L74.2,44z"/>
<path class="st0" d="M1,107h4.6c5.1,0,7.5-3.7,7.5-7s-2.5-6.7-7.5-6.7H0.9c-0.3,0-0.5,0.2-0.5,0.5c0,0,0,0,0,0.1v12.7
	C0.4,106.8,0.6,107,1,107L1,107z M3.5,103.8V96h2c2.8,0,4.3,1.8,4.3,3.8c0,2.2-1.7,4-3.9,4.1c-0.1,0-0.3,0-0.4,0H3.5z M26.1,104.3
	c-1.8,0-3-0.4-3.3-1.4c3-0.6,4.3-2.3,4.3-4.8s-1.9-4.8-5.6-4.8h-6.1c-0.3,0-0.5,0.2-0.5,0.5v12.7c0,0.3,0.2,0.5,0.5,0.5
	c0,0,0,0,0.1,0h2.1c0.3,0,0.5-0.2,0.5-0.5c0,0,0,0,0-0.1V103c0.5,0,0.9,0.1,1.3,0.1c0.9,3,4,3.9,6.7,3.9c0.3,0,0.5-0.2,0.5-0.5v-1.6
	C26.7,104.6,26.4,104.3,26.1,104.3C26.1,104.3,26.1,104.3,26.1,104.3L26.1,104.3z M18,96h3.5c1.6,0,2.4,1,2.4,1.9
	c0,1.4-1.1,2.2-4,2.2c-0.6,0-1.3,0-1.9-0.1L18,96L18,96z M34.9,107.2c3.3,0.1,6.1-2.4,6.3-5.7c0-0.2,0-0.4,0-0.7v-7.1
	c0-0.3-0.2-0.5-0.5-0.5h-2.1c-0.3,0-0.5,0.2-0.5,0.4c0,0,0,0,0,0.1v7.1c0,1.8-1.1,3.4-3,3.4c-1.7,0.1-3.2-1.3-3.2-3
	c0-0.1,0-0.2,0-0.3v-7.2c0-0.3-0.2-0.5-0.5-0.5h-2.1c-0.3,0-0.5,0.2-0.5,0.5v7.1c-0.2,3.3,2.3,6.2,5.6,6.4
	C34.4,107.3,34.7,107.3,34.9,107.2z M43.6,107h2.1c0.3,0,0.5-0.2,0.5-0.5c0,0,0,0,0-0.1V103c0.7,0.1,1.5,0.1,2.2,0.1
	c4.6,0,6.7-1.9,6.7-5c0-2.5-1.9-4.8-5.5-4.8h-6c-0.3,0-0.5,0.2-0.5,0.5v12.7C43.1,106.7,43.3,107,43.6,107
	C43.6,107,43.6,107,43.6,107L43.6,107z M48.1,100.1c-0.6,0-1.2,0-1.9-0.1v-4h3.5c1.6,0,2.4,1,2.4,1.9
	C52.2,99.4,51.1,100.1,48.1,100.1L48.1,100.1z M57.3,106.6h2.5c0.3,0,0.5-0.2,0.5-0.5c0,0,0,0,0,0v-2.6h5.9v2.6
	c0,0.3,0.2,0.5,0.4,0.5c0,0,0,0,0.1,0h2.1c0.3,0,0.5-0.2,0.5-0.5c0,0,0,0,0-0.1v-5.9c0-4.7-2.6-7.6-6.2-7.6c-3.4,0-6.3,2.7-6.3,7.6
	v5.9C56.8,106.3,57,106.6,57.3,106.6C57.3,106.6,57.3,106.6,57.3,106.6L57.3,106.6z M60.2,100.7c0-3.1,0.9-5.1,2.9-5.1s3,2,3,5.1
	L60.2,100.7z M77.1,106.6h3.4c0.3,0,0.5-0.2,0.5-0.4c0,0,0,0,0-0.1v-1.7c0-0.3-0.2-0.5-0.5-0.5l0,0h-2.9c-2,0-3.2,0.1-3.2-2.7v-7.4
	c0-0.3-0.2-0.5-0.5-0.5h-2.1c-0.3,0-0.5,0.2-0.5,0.5v7.8C71.3,105.4,73.4,106.6,77.1,106.6L77.1,106.6z M89.2,107.1
	c1.5,0,3.1-0.4,4.4-1.2c0.2-0.2,0.3-0.5,0.2-0.7l-0.8-1.5c-0.1-0.3-0.5-0.4-0.7-0.2c0,0,0,0,0,0c-0.7,0.4-1.6,0.7-2.4,0.7
	c-2.3,0.1-4.2-1.6-4.3-3.9c0-0.1,0-0.3,0-0.4c-0.1-2.2,1.6-4.1,3.8-4.2c0.1,0,0.1,0,0.2,0c0.9,0,1.9,0.2,2.7,0.7
	c0.2,0.2,0.5,0.1,0.7-0.1c0,0,0,0,0-0.1l0.8-1.6c0.1-0.2,0.1-0.5-0.1-0.6c0,0,0,0-0.1,0c-1.4-0.7-2.9-1.1-4.4-1.1
	c-3.8-0.1-6.9,3-7,6.8c0,0.1,0,0.2,0,0.3c-0.1,3.9,2.9,7.1,6.7,7.3C89,107.1,89.1,107.1,89.2,107.1L89.2,107.1z M96.1,106.6h2.1
	c0.3,0,0.5-0.2,0.5-0.5c0,0,0,0,0-0.1v-2.6h5.9v2.6c0,0.3,0.2,0.5,0.4,0.5c0,0,0,0,0.1,0h2.5c0.3,0,0.5-0.2,0.5-0.5c0,0,0,0,0-0.1
	v-5.9c0-4.7-2.6-7.6-6.2-7.6c-3.4,0-6.3,2.7-6.3,7.6v5.9C95.6,106.3,95.8,106.6,96.1,106.6C96.1,106.6,96.1,106.6,96.1,106.6z
	 M98.7,100.7c0-3.1,0.9-5.1,2.9-5.1s3,2,3,5.1L98.7,100.7z M110.2,106.6h2c0,0,0.5,0,0.6-0.3v-9.2c1.5,2.3,2.7,4.9,3.4,7.6
	c0.1,0.2,0.3,0.4,0.5,0.3h2.3c0.2,0,0.4-0.1,0.5-0.3c0.7-2.8,1.9-5.4,3.5-7.8v9.4c-0.1,0.3,0.5,0.3,0.5,0.3h2.1
	c0.3,0,0.5-0.2,0.5-0.5c0,0,0,0,0-0.1V93.8c0-0.3-0.2-0.5-0.5-0.5h-3.5c-0.3,0-0.6,0.2-0.8,0.4c-1.3,2.2-2.5,4.4-3.4,6.8
	c-1-2.4-2.1-4.6-3.5-6.8c-0.1-0.3-0.4-0.4-0.7-0.4h-3.5c-0.3,0-0.5,0.2-0.5,0.5v12.3C109.7,106.3,109.9,106.6,110.2,106.6
	C110.2,106.6,110.2,106.6,110.2,106.6L110.2,106.6z M128.6,107h2.1c0.3,0,0.5-0.2,0.5-0.5c0,0,0,0,0-0.1V103
	c0.7,0.1,1.5,0.1,2.2,0.1c4.6,0,6.6-1.9,6.6-5c0-2.5-1.9-4.8-5.5-4.8h-6c-0.3,0-0.5,0.2-0.5,0.5v12.7
	C128.1,106.7,128.3,107,128.6,107C128.6,107,128.6,107,128.6,107L128.6,107z M133.2,100.1c-0.6,0-1.2,0-1.9-0.1v-4h3.5
	c1.6,0,2.4,1,2.4,1.9C137.2,99.4,136.1,100.1,133.2,100.1L133.2,100.1z"/>
<path class="st0" d="M1.6,115.3H1.4c-0.2,0-0.4,0.1-0.5,0.2c-0.2,0.1-0.3,0.2-0.5,0.4c-0.1,0.1-0.1,0.1-0.1,0.2
	c-0.1,0.1-0.1,0.3-0.2,0.4c0,0.1,0,0.1,0,0.2c0,0.1,0,0.3,0,0.4c0,0.1,0,0.1,0,0.2c0,0.2,0.1,0.3,0.2,0.5c0,0.1,0.1,0.1,0.2,0.2
	l0.1,0.1c0.2,0.2,0.4,0.3,0.7,0.4h0.2h0.4c0.2,0,0.4-0.1,0.5-0.2c0.2-0.1,0.3-0.2,0.5-0.4c0.1-0.1,0.1-0.1,0.2-0.2
	c0.1-0.1,0.1-0.2,0.2-0.4c0,0,0-0.1,0-0.1h27.5v-0.4H3.1c0-0.1,0-0.2,0-0.4c0-0.1-0.1-0.3-0.2-0.4l-0.2-0.2l-0.1-0.1
	c-0.2-0.2-0.4-0.3-0.7-0.4l-0.2-0.1L1.6,115.3z"/>
<path class="st0" d="M139.4,115.3h0.2c0.2,0,0.4,0.1,0.5,0.2c0.2,0.1,0.3,0.2,0.5,0.4l0.1,0.2c0.1,0.1,0.1,0.3,0.2,0.4
	c0,0.1,0,0.1,0,0.2c0,0.1,0,0.3,0,0.4c0,0.1,0,0.1,0,0.2c0,0.2-0.1,0.3-0.2,0.5l-0.2,0.2l-0.1,0.1c-0.2,0.2-0.4,0.3-0.6,0.4h-0.2
	h-0.4c-0.2,0-0.4-0.1-0.5-0.2c-0.2-0.1-0.3-0.2-0.5-0.4c-0.1-0.1-0.1-0.1-0.1-0.2c-0.1-0.1-0.1-0.2-0.2-0.4c0,0,0-0.1,0-0.1h-27.3
	v-0.4h27.3c0-0.1,0-0.2,0-0.4c0-0.2,0.1-0.3,0.2-0.5l0.1-0.2l0.1-0.1c0.2-0.2,0.4-0.3,0.7-0.4l0.2-0.1L139.4,115.3z"/>
<path class="st0" d="M70.8,116.4c0,1-0.4,2-1.2,2.7c-0.7,0.7-1.7,1.1-2.7,1.1l0,0c-1,0-2-0.5-2.7-1.3c-0.7-0.7-1.1-1.6-1.1-2.6v-0.1
	c0-1.6,0.9-3,2.4-3.7c0.5-0.3,1-0.6,1.1-1h0.7c0.1,0.4,0.6,0.7,1.2,1C69.9,113.3,70.9,114.7,70.8,116.4L70.8,116.4z"/>
<path class="st0" d="M33.3,112.8h1.6v6.3h2v1.6h-3.6V112.8z"/>
<path class="st0" d="M42,112.7c1.1,0,2.1,0.4,2.9,1.2c1.6,1.6,1.6,4.2,0,5.9c-1.6,1.6-4.2,1.6-5.8,0c-1.6-1.6-1.5-4.3,0.1-5.8
	C39.9,113.2,40.9,112.8,42,112.7L42,112.7z M42,114.2c-0.7,0-1.4,0.3-1.8,0.8c-0.5,0.5-0.8,1.2-0.8,1.9c0,0.8,0.3,1.6,0.9,2.1
	c0.5,0.4,1.1,0.6,1.7,0.6c0.7,0,1.3-0.3,1.8-0.8c0.5-0.5,0.8-1.2,0.8-1.9c0-0.7-0.3-1.4-0.8-1.9C43.3,114.4,42.6,114.1,42,114.2
	L42,114.2z"/>
<path class="st0" d="M47.4,112.8h1.2l3.5,5.2v-5.2h1.6v7.8h-1.2l-3.5-5.1v5.1h-1.6V112.8z"/>
<path class="st0" d="M55.7,112.8h1.8c0.9-0.1,1.7,0.1,2.5,0.4c0.6,0.3,1.1,0.8,1.4,1.4c0.6,1.2,0.7,2.6,0.2,3.9
	c-0.2,0.5-0.5,0.9-0.8,1.3c-0.3,0.3-0.7,0.6-1.2,0.7c-0.7,0.2-1.4,0.2-2.1,0.2h-1.8V112.8z M57.2,114.4v5.1h0.7c0.5,0,1-0.1,1.5-0.2
	c0.3-0.2,0.6-0.5,0.8-0.8c0.2-0.4,0.3-0.9,0.3-1.4c0-0.7-0.2-1.5-0.7-2c-0.6-0.5-1.3-0.7-2.1-0.6L57.2,114.4z"/>
<path class="st0" d="M67,112.7c1.1,0,2.2,0.4,2.9,1.2c1.6,1.6,1.6,4.2,0,5.9c-0.8,0.8-1.8,1.2-2.9,1.2c-1.1,0-2.2-0.4-3-1.2
	c-1.3-1.3-1.5-3.4-0.6-5C64.1,113.5,65.5,112.7,67,112.7L67,112.7z M67,114.2c-0.7,0-1.4,0.3-1.8,0.8c-0.5,0.5-0.8,1.2-0.7,1.9
	c0,0.8,0.3,1.6,0.9,2.1c0.5,0.4,1.1,0.6,1.7,0.6c0.7,0,1.3-0.3,1.8-0.8c1-1.1,1-2.7,0-3.8C68.3,114.4,67.7,114.1,67,114.2L67,114.2z
	"/>
<path class="st0" d="M72.5,112.8h1.2l3.5,5.2v-5.2h1.6v7.8h-1.2l-3.5-5.1v5.1h-1.6V112.8z"/>
<path class="st0" d="M54,44.3c0,0.3-0.1,0.7-0.4,0.9c-0.2,0.2-0.6,0.4-0.9,0.4l0,0c-0.3,0-0.7-0.2-0.9-0.4c-0.2-0.2-0.4-0.5-0.4-0.9
	l0,0c0-0.5,0.3-1,0.8-1.2c0.2-0.1,0.3-0.2,0.4-0.3h0.2c0,0.1,0.2,0.2,0.4,0.3C53.7,43.3,54,43.8,54,44.3L54,44.3z"/>
<path class="st0" d="M61,45.5c0,0.3-0.1,0.7-0.4,0.9c-0.2,0.2-0.6,0.4-0.9,0.4l0,0c-0.7-0.1-1.2-0.6-1.3-1.3l0,0
	c0-0.5,0.3-1,0.8-1.2c0.2-0.1,0.3-0.2,0.4-0.3h0.2c0,0.2,0.2,0.2,0.4,0.4C60.7,44.5,61,45,61,45.5L61,45.5z"/>
<path class="st0" d="M46.5,45.8c0,0.3-0.1,0.7-0.4,0.9c-0.2,0.2-0.6,0.4-0.9,0.4l0,0c-0.7,0-1.3-0.6-1.3-1.3l0,0
	c0-0.5,0.3-1,0.8-1.2c0.2-0.1,0.3-0.2,0.4-0.3h0.2c0,0.2,0.2,0.2,0.4,0.4C46.2,44.8,46.5,45.3,46.5,45.8z"/>
<path class="st0" d="M40.6,49.8c0,0.3-0.1,0.7-0.4,0.9c-0.2,0.2-0.6,0.4-0.9,0.4l0,0c-0.7,0-1.3-0.6-1.3-1.3l0,0
	c0-0.5,0.3-1,0.8-1.2c0.2-0.1,0.3-0.2,0.4-0.3h0.2c0,0.2,0.2,0.2,0.4,0.4C40.3,48.8,40.6,49.3,40.6,49.8L40.6,49.8z"/>
<path class="st0" d="M36.7,56.1c0,0.3-0.2,0.7-0.4,0.9c-0.2,0.2-0.6,0.4-0.9,0.4l0,0c-0.3,0-0.7-0.2-0.9-0.4
	c-0.2-0.2-0.4-0.5-0.4-0.9l0,0c0-0.5,0.3-1,0.8-1.2c0.2-0.1,0.3-0.2,0.4-0.3h0.2c0,0.2,0.2,0.2,0.4,0.4
	C36.4,55.1,36.7,55.6,36.7,56.1L36.7,56.1z"/>
<path class="st0" d="M35.1,63.1c0,0.3-0.1,0.7-0.4,0.9c-0.2,0.2-0.6,0.4-0.9,0.4l0,0c-0.3,0-0.7-0.2-0.9-0.4
	c-0.2-0.2-0.4-0.5-0.4-0.9l0,0c0-0.5,0.3-1,0.8-1.2c0.2-0.1,0.3-0.2,0.4-0.3h0.2c0,0.1,0.2,0.2,0.4,0.3
	C34.8,62.1,35.1,62.6,35.1,63.1L35.1,63.1z"/>
<path class="st0" d="M36.7,70.2c0,0.4-0.2,0.7-0.4,0.9c-0.2,0.2-0.6,0.4-0.9,0.4l0,0c-0.3,0-0.7-0.2-0.9-0.4
	c-0.2-0.2-0.4-0.5-0.4-0.9l0,0c0-0.5,0.3-1.1,0.8-1.3c0.2-0.1,0.3-0.2,0.4-0.3h0.2c0,0.2,0.2,0.2,0.4,0.4
	C36.4,69.1,36.7,69.6,36.7,70.2z"/>
<path class="st0" d="M40.6,76.4c0,0.4-0.1,0.7-0.4,0.9c-0.2,0.2-0.6,0.4-0.9,0.4l0,0c-0.7-0.1-1.2-0.6-1.3-1.3l0,0
	c0-0.5,0.3-1,0.8-1.2c0.2-0.1,0.3-0.2,0.4-0.3h0.2c0,0.2,0.2,0.2,0.4,0.4C40.4,75.4,40.7,75.9,40.6,76.4L40.6,76.4z"/>
<path class="st0" d="M46.9,80.4c0,0.3-0.2,0.7-0.4,0.9c-0.2,0.2-0.6,0.4-0.9,0.4l0,0c-0.3,0-0.7-0.2-0.9-0.4
	c-0.2-0.2-0.4-0.5-0.4-0.9l0,0c0-0.5,0.3-1,0.8-1.2c0.2-0.1,0.3-0.2,0.4-0.3h0.2c0,0.2,0.2,0.2,0.4,0.3
	C46.6,79.4,46.9,79.8,46.9,80.4z"/>
<path class="st0" d="M54,81.9c0,0.3-0.1,0.7-0.4,0.9c-0.2,0.2-0.6,0.4-0.9,0.4l0,0c-0.3,0-0.7-0.2-0.9-0.4c-0.2-0.2-0.4-0.5-0.4-0.9
	l0,0c0-0.5,0.3-1,0.8-1.2c0.2-0.1,0.3-0.2,0.4-0.3h0.2c0,0.1,0.2,0.2,0.4,0.3C53.7,80.9,54,81.4,54,81.9L54,81.9z"/>
<path class="st0" d="M61.4,80.4c0,0.3-0.2,0.7-0.4,0.9c-0.2,0.2-0.6,0.4-0.9,0.4l0,0c-0.3,0-0.7-0.2-0.9-0.4
	c-0.2-0.2-0.4-0.5-0.4-0.9l0,0c0-0.5,0.3-1,0.8-1.2c0.2-0.1,0.3-0.2,0.4-0.3h0.2c0,0.2,0.2,0.2,0.4,0.3
	C61.1,79.3,61.4,79.8,61.4,80.4L61.4,80.4z"/>
<path class="st0" d="M84.7,115.4h-1.5c0-0.7,0.3-1.5,0.8-2c0.5-0.5,1.2-0.8,1.9-0.7c0.4,0,0.9,0.1,1.3,0.3c0.4,0.2,0.7,0.5,0.9,0.9
	c0.2,0.4,0.3,0.8,0.3,1.2c0,0.5-0.2,1-0.4,1.5c-0.4,0.7-0.9,1.4-1.5,1.9l-0.9,0.9h2.8v1.4H83V120l2.4-2.5c0.5-0.4,0.8-0.9,1.2-1.4
	c0.2-0.3,0.3-0.6,0.3-1c0-0.3-0.1-0.6-0.3-0.8c-0.2-0.2-0.5-0.3-0.8-0.3c-0.3,0-0.6,0.1-0.8,0.4C84.8,114.7,84.7,115,84.7,115.4z"/>
<path class="st0" d="M92,112.7c0.5,0,1,0.1,1.5,0.4c0.5,0.3,0.8,0.8,1,1.3c0.3,0.8,0.4,1.6,0.3,2.4c0,0.8-0.1,1.7-0.3,2.4
	c-0.2,0.5-0.5,1-0.9,1.3c-0.4,0.3-0.9,0.4-1.5,0.4c-1.1,0.1-2.1-0.6-2.4-1.7c-0.3-0.8-0.4-1.6-0.4-2.4c-0.1-1.1,0.2-2.2,0.7-3.2
	C90.3,113,91.1,112.6,92,112.7z M92,114.1c-0.2,0-0.5,0.1-0.7,0.2c-0.2,0.2-0.4,0.5-0.4,0.8c-0.1,0.6-0.2,1.2-0.2,1.7
	c-0.1,0.7,0.1,1.4,0.4,2.1c0.2,0.3,0.5,0.6,0.9,0.6c0.4,0,0.7-0.2,0.9-0.5c0.3-0.7,0.4-1.4,0.4-2.2c0.1-0.7-0.1-1.5-0.3-2.1
	C92.7,114.3,92.4,114.1,92,114.1L92,114.1z"/>
<path class="st0" d="M97.1,115.4h-1.5c0-0.7,0.3-1.5,0.8-2c0.5-0.5,1.2-0.8,1.9-0.7c0.4,0,0.9,0.1,1.3,0.3c0.4,0.2,0.7,0.5,0.9,0.9
	c0.2,0.4,0.3,0.8,0.3,1.2c0,0.5-0.2,1-0.4,1.5c-0.4,0.7-0.9,1.4-1.5,1.9l-0.9,0.9h2.8v1.4h-5.5V120l2.4-2.5c0.5-0.4,0.8-0.9,1.2-1.4
	c0.2-0.3,0.3-0.6,0.3-1c0-0.3-0.1-0.6-0.3-0.8c-0.2-0.2-0.5-0.3-0.8-0.3c-0.3,0-0.6,0.1-0.8,0.4C97.2,114.7,97.1,115,97.1,115.4z"/>
<path class="st0" d="M104.4,112.7c0.5,0,1,0.1,1.5,0.4c0.5,0.3,0.8,0.8,1,1.3c0.3,0.8,0.4,1.6,0.3,2.4c0,0.8-0.1,1.7-0.3,2.4
	c-0.2,0.5-0.5,1-0.9,1.3c-0.4,0.3-0.9,0.4-1.5,0.4c-1.1,0.1-2.1-0.6-2.4-1.7c-0.3-0.8-0.4-1.6-0.4-2.4c-0.1-1.1,0.2-2.2,0.7-3.2
	C102.7,113,103.5,112.6,104.4,112.7z M104.4,114.1c-0.2,0-0.5,0.1-0.7,0.2c-0.2,0.2-0.4,0.5-0.4,0.8c-0.1,0.6-0.2,1.2-0.2,1.7
	c-0.1,0.7,0.1,1.4,0.4,2.1c0.2,0.3,0.5,0.6,0.9,0.6c0.4,0,0.7-0.2,0.9-0.5c0.3-0.7,0.4-1.4,0.4-2.2c0.1-0.7-0.1-1.5-0.3-2.1
	C105.1,114.3,104.8,114.1,104.4,114.1L104.4,114.1z"/>
</svg>
